<svg width="113" height="32" viewBox="0 0 113 32" fill="none" xmlns="http://www.w3.org/2000/svg">
<path d="M37.148 25.198C36.068 25.198 35.21 24.994 34.574 24.586C33.95 24.178 33.512 23.614 33.26 22.894C33.008 22.162 32.882 21.316 32.882 20.356V15.118C32.882 14.11 33.008 13.246 33.26 12.526C33.512 11.794 33.95 11.23 34.574 10.834C35.21 10.438 36.068 10.24 37.148 10.24C38.192 10.24 39.008 10.414 39.596 10.762C40.196 11.11 40.616 11.602 40.856 12.238C41.108 12.874 41.234 13.612 41.234 14.452V15.676H38.354V14.308C38.354 13.972 38.336 13.66 38.3 13.372C38.264 13.072 38.162 12.832 37.994 12.652C37.838 12.46 37.562 12.364 37.166 12.364C36.77 12.364 36.482 12.46 36.302 12.652C36.122 12.844 36.008 13.096 35.96 13.408C35.912 13.708 35.888 14.044 35.888 14.416V21.04C35.888 21.448 35.918 21.808 35.978 22.12C36.05 22.42 36.176 22.654 36.356 22.822C36.548 22.978 36.818 23.056 37.166 23.056C37.55 23.056 37.82 22.966 37.976 22.786C38.144 22.594 38.246 22.342 38.282 22.03C38.33 21.718 38.354 21.388 38.354 21.04V19.618H41.234V20.824C41.234 21.676 41.114 22.432 40.874 23.092C40.634 23.74 40.22 24.256 39.632 24.64C39.044 25.012 38.216 25.198 37.148 25.198ZM42.9212 25V14.596H45.6392V25H42.9212ZM42.9032 12.886V10.852H45.6392V12.886H42.9032ZM47.5443 25V14.596H50.2623V16.27C50.6103 15.658 50.9523 15.208 51.2883 14.92C51.6363 14.62 52.0443 14.47 52.5123 14.47C52.5963 14.47 52.6683 14.476 52.7283 14.488C52.8003 14.488 52.8663 14.5 52.9263 14.524V17.26C52.7943 17.2 52.6443 17.152 52.4763 17.116C52.3083 17.068 52.1343 17.044 51.9543 17.044C51.6183 17.044 51.3123 17.134 51.0363 17.314C50.7603 17.482 50.5023 17.728 50.2623 18.052V25H47.5443ZM57.4108 25.18C56.6428 25.18 56.0008 25.036 55.4848 24.748C54.9688 24.448 54.5788 24.028 54.3148 23.488C54.0628 22.948 53.9368 22.306 53.9368 21.562V18.052C53.9368 17.272 54.0628 16.618 54.3148 16.09C54.5788 15.55 54.9688 15.136 55.4848 14.848C56.0008 14.56 56.6428 14.416 57.4108 14.416C58.1548 14.416 58.7788 14.536 59.2828 14.776C59.7868 15.004 60.1588 15.352 60.3988 15.82C60.6508 16.288 60.7768 16.876 60.7768 17.584V18.574H58.1848V17.512C58.1848 17.2 58.1548 16.96 58.0948 16.792C58.0468 16.612 57.9628 16.486 57.8428 16.414C57.7348 16.342 57.5908 16.306 57.4108 16.306C57.2308 16.306 57.0868 16.354 56.9788 16.45C56.8708 16.534 56.7928 16.684 56.7448 16.9C56.6968 17.104 56.6728 17.392 56.6728 17.764V21.85C56.6728 22.414 56.7328 22.798 56.8528 23.002C56.9848 23.194 57.1768 23.29 57.4288 23.29C57.6208 23.29 57.7708 23.248 57.8788 23.164C57.9868 23.08 58.0648 22.948 58.1128 22.768C58.1608 22.588 58.1848 22.36 58.1848 22.084V20.824H60.7768V21.958C60.7768 22.654 60.6508 23.248 60.3988 23.74C60.1468 24.22 59.7688 24.58 59.2648 24.82C58.7608 25.06 58.1428 25.18 57.4108 25.18ZM62.4878 25V10.42H65.2058V25H62.4878ZM70.3839 25.18C69.6159 25.18 68.9739 25.042 68.4579 24.766C67.9419 24.478 67.5519 24.064 67.2879 23.524C67.0239 22.972 66.8919 22.312 66.8919 21.544V18.052C66.8919 17.26 67.0239 16.6 67.2879 16.072C67.5519 15.532 67.9479 15.124 68.4759 14.848C69.0039 14.56 69.6399 14.416 70.3839 14.416C71.1759 14.416 71.8179 14.56 72.3099 14.848C72.8019 15.136 73.1619 15.556 73.3899 16.108C73.6299 16.66 73.7499 17.332 73.7499 18.124V19.942H69.5739V21.958C69.5739 22.258 69.6039 22.504 69.6639 22.696C69.7359 22.888 69.8319 23.026 69.9519 23.11C70.0719 23.182 70.2219 23.218 70.4019 23.218C70.5699 23.218 70.7139 23.182 70.8339 23.11C70.9659 23.026 71.0619 22.9 71.1219 22.732C71.1819 22.564 71.2119 22.342 71.2119 22.066V21.076H73.7319V21.94C73.7319 22.996 73.4439 23.8 72.8679 24.352C72.2919 24.904 71.4639 25.18 70.3839 25.18ZM69.5739 18.646H71.2119V17.62C71.2119 17.32 71.1819 17.08 71.1219 16.9C71.0619 16.708 70.9659 16.576 70.8339 16.504C70.7139 16.42 70.5579 16.378 70.3659 16.378C70.1859 16.378 70.0359 16.42 69.9159 16.504C69.8079 16.588 69.7239 16.738 69.6639 16.954C69.6039 17.158 69.5739 17.452 69.5739 17.836V18.646ZM82.9112 25.18C82.0112 25.18 81.2672 24.964 80.6792 24.532C80.1032 24.088 79.6532 23.41 79.3292 22.498L81.2372 21.706C81.4172 22.21 81.6332 22.606 81.8852 22.894C82.1372 23.17 82.4312 23.308 82.7672 23.308C83.0192 23.308 83.2052 23.254 83.3252 23.146C83.4572 23.026 83.5232 22.864 83.5232 22.66C83.5232 22.372 83.4272 22.114 83.2352 21.886C83.0432 21.658 82.7012 21.34 82.2092 20.932L81.2372 20.104C80.7332 19.672 80.3252 19.246 80.0132 18.826C79.7132 18.394 79.5632 17.86 79.5632 17.224C79.5632 16.66 79.7012 16.168 79.9772 15.748C80.2652 15.328 80.6432 15.004 81.1112 14.776C81.5912 14.536 82.1072 14.416 82.6592 14.416C83.5232 14.416 84.2312 14.662 84.7832 15.154C85.3352 15.634 85.7132 16.288 85.9172 17.116L84.0992 17.908C84.0392 17.644 83.9432 17.398 83.8112 17.17C83.6912 16.93 83.5412 16.732 83.3612 16.576C83.1812 16.42 82.9712 16.342 82.7312 16.342C82.5152 16.342 82.3412 16.408 82.2092 16.54C82.0772 16.672 82.0112 16.84 82.0112 17.044C82.0112 17.26 82.1192 17.488 82.3352 17.728C82.5632 17.968 82.8752 18.256 83.2712 18.592L84.2432 19.456C84.5312 19.708 84.8132 19.978 85.0892 20.266C85.3652 20.542 85.5932 20.854 85.7732 21.202C85.9532 21.538 86.0432 21.928 86.0432 22.372C86.0432 22.972 85.8992 23.482 85.6112 23.902C85.3232 24.322 84.9392 24.64 84.4592 24.856C83.9912 25.072 83.4752 25.18 82.9112 25.18ZM87.3407 25V10.42H90.0407V15.55C90.4247 15.178 90.8267 14.896 91.2467 14.704C91.6667 14.512 92.1227 14.416 92.6147 14.416C93.0347 14.416 93.3767 14.524 93.6407 14.74C93.9167 14.956 94.1207 15.244 94.2527 15.604C94.3847 15.952 94.4507 16.348 94.4507 16.792V25H91.7327V17.242C91.7327 16.954 91.6907 16.738 91.6067 16.594C91.5227 16.45 91.3547 16.378 91.1027 16.378C90.9587 16.378 90.7907 16.42 90.5987 16.504C90.4187 16.576 90.2327 16.678 90.0407 16.81V25H87.3407ZM99.5288 25.18C98.7848 25.18 98.1488 25.048 97.6208 24.784C97.0928 24.508 96.6908 24.112 96.4148 23.596C96.1508 23.08 96.0188 22.438 96.0188 21.67V17.926C96.0188 17.158 96.1508 16.516 96.4148 16C96.6908 15.484 97.0928 15.094 97.6208 14.83C98.1488 14.554 98.7848 14.416 99.5288 14.416C100.273 14.416 100.909 14.554 101.437 14.83C101.965 15.094 102.367 15.484 102.643 16C102.919 16.516 103.057 17.158 103.057 17.926V21.67C103.057 22.438 102.919 23.08 102.643 23.596C102.367 24.112 101.965 24.508 101.437 24.784C100.909 25.048 100.273 25.18 99.5288 25.18ZM99.5468 23.344C99.7748 23.344 99.9488 23.284 100.069 23.164C100.189 23.032 100.267 22.858 100.303 22.642C100.339 22.414 100.357 22.156 100.357 21.868V17.746C100.357 17.446 100.339 17.188 100.303 16.972C100.267 16.756 100.189 16.582 100.069 16.45C99.9488 16.318 99.7748 16.252 99.5468 16.252C99.3188 16.252 99.1448 16.318 99.0248 16.45C98.9048 16.582 98.8208 16.756 98.7728 16.972C98.7368 17.188 98.7188 17.446 98.7188 17.746V21.868C98.7188 22.156 98.7368 22.414 98.7728 22.642C98.8208 22.858 98.9048 23.032 99.0248 23.164C99.1448 23.284 99.3188 23.344 99.5468 23.344ZM104.707 28.42V14.596H107.425V15.37C107.749 15.07 108.097 14.836 108.469 14.668C108.853 14.5 109.237 14.416 109.621 14.416C110.041 14.416 110.395 14.512 110.683 14.704C110.971 14.884 111.205 15.13 111.385 15.442C111.565 15.754 111.691 16.102 111.763 16.486C111.835 16.87 111.871 17.26 111.871 17.656V21.724C111.871 22.396 111.787 22.99 111.619 23.506C111.451 24.022 111.193 24.43 110.845 24.73C110.509 25.03 110.071 25.18 109.531 25.18C109.159 25.18 108.793 25.09 108.433 24.91C108.085 24.73 107.749 24.496 107.425 24.208V28.42H104.707ZM108.325 23.362C108.553 23.362 108.721 23.296 108.829 23.164C108.949 23.02 109.033 22.834 109.081 22.606C109.129 22.378 109.153 22.126 109.153 21.85V17.494C109.153 17.242 109.129 17.014 109.081 16.81C109.033 16.606 108.949 16.444 108.829 16.324C108.709 16.192 108.547 16.126 108.343 16.126C108.175 16.126 108.013 16.168 107.857 16.252C107.701 16.324 107.557 16.42 107.425 16.54V23.056C107.569 23.152 107.713 23.23 107.857 23.29C108.001 23.338 108.157 23.362 108.325 23.362Z" fill="#C2F42E"/>
<path d="M16 26C21.5228 26 26 21.5228 26 16C26 10.4772 21.5228 6 16 6C10.4772 6 6 10.4772 6 16C6 21.5228 10.4772 26 16 26Z" fill="#C2F42E"/>
<path d="M16 30C13.2311 30 10.5243 29.1789 8.22202 27.6406C5.91973 26.1022 4.12532 23.9157 3.06569 21.3576C2.00607 18.7994 1.72882 15.9845 2.26901 13.2687C2.80921 10.553 4.14258 8.05845 6.10051 6.10051C8.05845 4.14258 10.553 2.80921 13.2687 2.26901C15.9845 1.72882 18.7994 2.00607 21.3576 3.06569C23.9157 4.12532 26.1022 5.91973 27.6406 8.22202C29.1789 10.5243 30 13.2311 30 16C29.9958 19.7117 28.5194 23.2702 25.8948 25.8948C23.2702 28.5194 19.7117 29.9958 16 30ZM16 4.00001C13.6266 4.00001 11.3066 4.70379 9.33316 6.02237C7.35977 7.34095 5.8217 9.21509 4.91345 11.4078C4.0052 13.6005 3.76756 16.0133 4.23058 18.3411C4.69361 20.6689 5.83649 22.8071 7.51472 24.4853C9.19296 26.1635 11.3312 27.3064 13.6589 27.7694C15.9867 28.2325 18.3995 27.9948 20.5922 27.0866C22.7849 26.1783 24.6591 24.6402 25.9776 22.6668C27.2962 20.6935 28 18.3734 28 16C27.9963 12.8185 26.7308 9.76845 24.4812 7.51882C22.2316 5.26918 19.1815 4.00371 16 4.00001Z" fill="#C2F42E"/>
</svg>
