<svg width="154" height="40" viewBox="0 0 154 40" fill="none" xmlns="http://www.w3.org/2000/svg">
<path d="M52.864 31.264C51.424 31.264 50.28 30.992 49.432 30.448C48.6 29.904 48.016 29.152 47.68 28.192C47.344 27.216 47.176 26.088 47.176 24.808V17.824C47.176 16.48 47.344 15.328 47.68 14.368C48.016 13.392 48.6 12.64 49.432 12.112C50.28 11.584 51.424 11.32 52.864 11.32C54.256 11.32 55.344 11.552 56.128 12.016C56.928 12.48 57.488 13.136 57.808 13.984C58.144 14.832 58.312 15.816 58.312 16.936V18.568H54.472V16.744C54.472 16.296 54.448 15.88 54.4 15.496C54.352 15.096 54.216 14.776 53.992 14.536C53.784 14.28 53.416 14.152 52.888 14.152C52.36 14.152 51.976 14.28 51.736 14.536C51.496 14.792 51.344 15.128 51.28 15.544C51.216 15.944 51.184 16.392 51.184 16.888V25.72C51.184 26.264 51.224 26.744 51.304 27.16C51.4 27.56 51.568 27.872 51.808 28.096C52.064 28.304 52.424 28.408 52.888 28.408C53.4 28.408 53.76 28.288 53.968 28.048C54.192 27.792 54.328 27.456 54.376 27.04C54.44 26.624 54.472 26.184 54.472 25.72V23.824H58.312V25.432C58.312 26.568 58.152 27.576 57.832 28.456C57.512 29.32 56.96 30.008 56.176 30.52C55.392 31.016 54.288 31.264 52.864 31.264ZM60.5616 31V17.128H64.1856V31H60.5616ZM60.5376 14.848V12.136H64.1856V14.848H60.5376ZM66.7257 31V17.128H70.3497V19.36C70.8137 18.544 71.2697 17.944 71.7177 17.56C72.1817 17.16 72.7257 16.96 73.3497 16.96C73.4617 16.96 73.5577 16.968 73.6377 16.984C73.7337 16.984 73.8217 17 73.9017 17.032V20.68C73.7257 20.6 73.5257 20.536 73.3017 20.488C73.0777 20.424 72.8457 20.392 72.6057 20.392C72.1577 20.392 71.7497 20.512 71.3817 20.752C71.0137 20.976 70.6697 21.304 70.3497 21.736V31H66.7257ZM79.8811 31.24C78.8571 31.24 78.0011 31.048 77.3131 30.664C76.6251 30.264 76.1051 29.704 75.7531 28.984C75.4171 28.264 75.2491 27.408 75.2491 26.416V21.736C75.2491 20.696 75.4171 19.824 75.7531 19.12C76.1051 18.4 76.6251 17.848 77.3131 17.464C78.0011 17.08 78.8571 16.888 79.8811 16.888C80.8731 16.888 81.7051 17.048 82.3771 17.368C83.0491 17.672 83.5451 18.136 83.8651 18.76C84.2011 19.384 84.3691 20.168 84.3691 21.112V22.432H80.9131V21.016C80.9131 20.6 80.8731 20.28 80.7931 20.056C80.7291 19.816 80.6171 19.648 80.4571 19.552C80.3131 19.456 80.1211 19.408 79.8811 19.408C79.6411 19.408 79.4491 19.472 79.3051 19.6C79.1611 19.712 79.0571 19.912 78.9931 20.2C78.9291 20.472 78.8971 20.856 78.8971 21.352V26.8C78.8971 27.552 78.9771 28.064 79.1371 28.336C79.3131 28.592 79.5691 28.72 79.9051 28.72C80.1611 28.72 80.3611 28.664 80.5051 28.552C80.6491 28.44 80.7531 28.264 80.8171 28.024C80.8811 27.784 80.9131 27.48 80.9131 27.112V25.432H84.3691V26.944C84.3691 27.872 84.2011 28.664 83.8651 29.32C83.5291 29.96 83.0251 30.44 82.3531 30.76C81.6811 31.08 80.8571 31.24 79.8811 31.24ZM86.6504 31V11.56H90.2744V31H86.6504ZM97.1785 31.24C96.1545 31.24 95.2985 31.056 94.6105 30.688C93.9225 30.304 93.4025 29.752 93.0505 29.032C92.6985 28.296 92.5225 27.416 92.5225 26.392V21.736C92.5225 20.68 92.6985 19.8 93.0505 19.096C93.4025 18.376 93.9305 17.832 94.6345 17.464C95.3385 17.08 96.1865 16.888 97.1785 16.888C98.2345 16.888 99.0905 17.08 99.7465 17.464C100.403 17.848 100.883 18.408 101.187 19.144C101.507 19.88 101.667 20.776 101.667 21.832V24.256H96.0985V26.944C96.0985 27.344 96.1385 27.672 96.2185 27.928C96.3145 28.184 96.4425 28.368 96.6025 28.48C96.7625 28.576 96.9625 28.624 97.2025 28.624C97.4265 28.624 97.6185 28.576 97.7785 28.48C97.9545 28.368 98.0825 28.2 98.1625 27.976C98.2425 27.752 98.2825 27.456 98.2825 27.088V25.768H101.643V26.92C101.643 28.328 101.259 29.4 100.491 30.136C99.7225 30.872 98.6185 31.24 97.1785 31.24ZM96.0985 22.528H98.2825V21.16C98.2825 20.76 98.2425 20.44 98.1625 20.2C98.0825 19.944 97.9545 19.768 97.7785 19.672C97.6185 19.56 97.4105 19.504 97.1545 19.504C96.9145 19.504 96.7145 19.56 96.5545 19.672C96.4105 19.784 96.2985 19.984 96.2185 20.272C96.1385 20.544 96.0985 20.936 96.0985 21.448V22.528ZM113.882 31.24C112.682 31.24 111.69 30.952 110.906 30.376C110.138 29.784 109.538 28.88 109.106 27.664L111.65 26.608C111.89 27.28 112.178 27.808 112.514 28.192C112.85 28.56 113.242 28.744 113.69 28.744C114.026 28.744 114.274 28.672 114.434 28.528C114.61 28.368 114.698 28.152 114.698 27.88C114.698 27.496 114.57 27.152 114.314 26.848C114.058 26.544 113.602 26.12 112.946 25.576L111.65 24.472C110.978 23.896 110.434 23.328 110.018 22.768C109.618 22.192 109.418 21.48 109.418 20.632C109.418 19.88 109.602 19.224 109.97 18.664C110.354 18.104 110.858 17.672 111.482 17.368C112.122 17.048 112.81 16.888 113.546 16.888C114.698 16.888 115.642 17.216 116.378 17.872C117.114 18.512 117.618 19.384 117.89 20.488L115.466 21.544C115.386 21.192 115.258 20.864 115.082 20.56C114.922 20.24 114.722 19.976 114.482 19.768C114.242 19.56 113.962 19.456 113.642 19.456C113.354 19.456 113.122 19.544 112.946 19.72C112.77 19.896 112.682 20.12 112.682 20.392C112.682 20.68 112.826 20.984 113.114 21.304C113.418 21.624 113.834 22.008 114.362 22.456L115.658 23.608C116.042 23.944 116.418 24.304 116.786 24.688C117.154 25.056 117.458 25.472 117.698 25.936C117.938 26.384 118.058 26.904 118.058 27.496C118.058 28.296 117.866 28.976 117.482 29.536C117.098 30.096 116.586 30.52 115.946 30.808C115.322 31.096 114.634 31.24 113.882 31.24ZM119.788 31V11.56H123.388V18.4C123.9 17.904 124.436 17.528 124.996 17.272C125.556 17.016 126.164 16.888 126.82 16.888C127.38 16.888 127.836 17.032 128.188 17.32C128.556 17.608 128.828 17.992 129.004 18.472C129.18 18.936 129.268 19.464 129.268 20.056V31H125.644V20.656C125.644 20.272 125.588 19.984 125.476 19.792C125.364 19.6 125.14 19.504 124.804 19.504C124.612 19.504 124.388 19.56 124.132 19.672C123.892 19.768 123.644 19.904 123.388 20.08V31H119.788ZM136.038 31.24C135.046 31.24 134.198 31.064 133.494 30.712C132.79 30.344 132.254 29.816 131.886 29.128C131.534 28.44 131.358 27.584 131.358 26.56V21.568C131.358 20.544 131.534 19.688 131.886 19C132.254 18.312 132.79 17.792 133.494 17.44C134.198 17.072 135.046 16.888 136.038 16.888C137.03 16.888 137.878 17.072 138.582 17.44C139.286 17.792 139.822 18.312 140.19 19C140.558 19.688 140.742 20.544 140.742 21.568V26.56C140.742 27.584 140.558 28.44 140.19 29.128C139.822 29.816 139.286 30.344 138.582 30.712C137.878 31.064 137.03 31.24 136.038 31.24ZM136.062 28.792C136.366 28.792 136.598 28.712 136.758 28.552C136.918 28.376 137.022 28.144 137.07 27.856C137.118 27.552 137.142 27.208 137.142 26.824V21.328C137.142 20.928 137.118 20.584 137.07 20.296C137.022 20.008 136.918 19.776 136.758 19.6C136.598 19.424 136.366 19.336 136.062 19.336C135.758 19.336 135.526 19.424 135.366 19.6C135.206 19.776 135.094 20.008 135.03 20.296C134.982 20.584 134.958 20.928 134.958 21.328V26.824C134.958 27.208 134.982 27.552 135.03 27.856C135.094 28.144 135.206 28.376 135.366 28.552C135.526 28.712 135.758 28.792 136.062 28.792ZM142.943 35.56V17.128H146.567V18.16C146.999 17.76 147.463 17.448 147.959 17.224C148.471 17 148.983 16.888 149.495 16.888C150.055 16.888 150.527 17.016 150.911 17.272C151.295 17.512 151.607 17.84 151.847 18.256C152.087 18.672 152.255 19.136 152.351 19.648C152.447 20.16 152.495 20.68 152.495 21.208V26.632C152.495 27.528 152.383 28.32 152.159 29.008C151.935 29.696 151.591 30.24 151.127 30.64C150.679 31.04 150.095 31.24 149.375 31.24C148.879 31.24 148.391 31.12 147.911 30.88C147.447 30.64 146.999 30.328 146.567 29.944V35.56H142.943ZM147.767 28.816C148.071 28.816 148.295 28.728 148.439 28.552C148.599 28.36 148.711 28.112 148.775 27.808C148.839 27.504 148.871 27.168 148.871 26.8V20.992C148.871 20.656 148.839 20.352 148.775 20.08C148.711 19.808 148.599 19.592 148.439 19.432C148.279 19.256 148.063 19.168 147.791 19.168C147.567 19.168 147.351 19.224 147.143 19.336C146.935 19.432 146.743 19.56 146.567 19.72V28.408C146.759 28.536 146.951 28.64 147.143 28.72C147.335 28.784 147.543 28.816 147.767 28.816Z" fill="#C2F42E"/>
<path d="M20 32.5C26.9036 32.5 32.5 26.9036 32.5 20C32.5 13.0964 26.9036 7.5 20 7.5C13.0964 7.5 7.5 13.0964 7.5 20C7.5 26.9036 13.0964 32.5 20 32.5Z" fill="#C2F42E"/>
<path d="M20 37.5C16.5388 37.5 13.1554 36.4736 10.2775 34.5507C7.39967 32.6278 5.15665 29.8947 3.83212 26.697C2.50758 23.4992 2.16102 19.9806 2.83627 16.5859C3.51151 13.1912 5.17822 10.073 7.62564 7.62562C10.0731 5.1782 13.1913 3.51149 16.5859 2.83625C19.9806 2.16101 23.4993 2.50757 26.697 3.8321C29.8947 5.15663 32.6278 7.39965 34.5507 10.2775C36.4737 13.1554 37.5 16.5388 37.5 20C37.4947 24.6397 35.6493 29.0878 32.3685 32.3685C29.0878 35.6493 24.6397 37.4947 20 37.5ZM20 4.99999C17.0333 4.99999 14.1332 5.87973 11.6665 7.52795C9.19972 9.17617 7.27713 11.5188 6.14181 14.2597C5.0065 17.0006 4.70945 20.0166 5.28823 22.9263C5.86701 25.8361 7.29562 28.5088 9.39341 30.6066C11.4912 32.7044 14.1639 34.133 17.0737 34.7118C19.9834 35.2905 22.9994 34.9935 25.7403 33.8582C28.4812 32.7229 30.8238 30.8003 32.4721 28.3335C34.1203 25.8668 35 22.9667 35 20C34.9954 16.0232 33.4135 12.2105 30.6015 9.39851C27.7895 6.58646 23.9768 5.00462 20 4.99999Z" fill="#C2F42E"/>
</svg>
